<?xml version="1.0" encoding="UTF-8"?>
<svg width="110px" height="123px" viewBox="0 0 110 123" version="1.1" xmlns="http://www.w3.org/2000/svg" xmlns:xlink="http://www.w3.org/1999/xlink">
    <!-- Generator: Sketch 49.3 (51167) - http://www.bohemiancoding.com/sketch -->
    <title>Shape</title>
    <desc>Created with Sketch.</desc>
    <defs></defs>
    <g id="Page-1" stroke="none" stroke-width="1" fill="none" fill-rule="evenodd">
        <g id="cv-allanreyes" transform="translate(-40.000000, -71.000000)" fill="#7ED321">
            <g id="ar-logo-white" transform="translate(40.000000, 71.000000)">
                <g id="Vector">
                    <path d="M101.327679,122.767857 L58.3836786,68.75 L11.5122857,68.75 L11.5122857,96.5773482 L29.6029643,96.5773482 L29.6029643,103.452054 L0,103.452054 L0,96.5773482 L4.93383393,96.5773482 L4.93383393,6.875 L0,6.875 L0,0 L43.1874732,0 C48.0772679,0 53.1683036,0.382053571 58.3188571,1.29708661 C63.4786429,2.21669643 68.1730893,3.94853839 72.27275,6.52568125 C76.3645536,9.11919643 79.7718036,12.6941964 82.4042411,17.1940804 C85.0355982,21.7289286 86.3687589,27.6149107 86.3687589,34.7125625 C86.3687589,41.3282768 85.0990446,46.8953571 82.5942857,51.2698214 C80.1079911,55.6459554 76.8694732,59.2428571 72.9697768,61.9614286 C70.4333929,63.7351786 67.667875,65.2794018 64.7286161,66.4046429 L109.233929,122.767857 L101.327679,122.767857 Z M53.7705536,62.5215446 L11.5122857,9.15946429 L11.5122857,62.5297946 L53.7705536,62.5215446 Z M60.3154554,60.8113393 C64.273,59.5902411 67.6964554,57.8086339 70.503125,55.5804464 C76.756625,50.6173839 79.7965536,43.7522054 79.7965536,34.6286875 C79.7965536,29.101875 78.70775,24.4487768 76.5608839,20.8165179 C74.4173571,17.2156875 71.5366339,14.3147321 67.9997411,12.2063661 C64.4608839,10.0934821 60.2690982,8.65137232 55.5397857,7.78184196 C50.6711071,6.91723214 45.7468393,6.54762232 40.9113571,6.54762232 L17.3440536,6.54762232 L60.3154554,60.8113393 Z" id="Shape"></path>
                </g>
            </g>
        </g>
    </g>
</svg>